 <svg width="578" height="238" viewBox="0 0 578 238" fill="none" xmlns="http://www.w3.org/2000/svg">
<path d="M92.9159 65.4535C112.442 65.4535 127.446 73.1588 137.929 88.5693C148.411 103.774 153.652 125.144 153.652 152.677C153.652 169.526 150.98 184.526 145.636 197.676C140.498 210.826 132.996 221.1 123.13 228.497C113.47 235.894 101.96 239.592 88.5996 239.592C79.7614 239.592 71.6426 237.743 64.2432 234.045C57.0494 230.346 50.8832 225.209 45.7448 218.634L43.2783 234.353H0.115234V5.66064L48.8278 0.421082V87.3365C53.7608 80.5559 60.0297 75.2135 67.6346 71.3095C75.4451 67.4055 83.8722 65.4535 92.9159 65.4535ZM74.4174 204.148C93.5325 204.148 103.09 186.991 103.09 152.677C103.09 133.157 100.829 119.699 96.3072 112.302C91.7854 104.904 85.2082 101.206 76.5755 101.206C65.682 101.206 56.4328 107.576 48.8278 120.315V188.43C51.9109 193.361 55.6106 197.265 59.9269 200.142C64.4488 202.813 69.2789 204.148 74.4174 204.148Z" fill="url(#paint0_linear_262_4)"/>
<path d="M516.839 65.4535C536.365 65.4535 551.37 73.1588 561.852 88.5693C572.335 103.774 577.576 125.144 577.576 152.677C577.576 169.526 574.904 184.526 569.56 197.676C564.421 210.826 556.919 221.1 547.053 228.497C537.393 235.894 525.883 239.592 512.523 239.592C503.685 239.592 495.566 237.743 488.167 234.045C480.973 230.346 474.807 225.209 469.668 218.634L467.202 234.353H424.039V5.66064L472.751 0.421082V87.3365C477.684 80.5559 483.953 75.2135 491.558 71.3095C499.368 67.4055 507.796 65.4535 516.839 65.4535ZM498.341 204.148C517.456 204.148 527.013 186.991 527.013 152.677C527.013 133.157 524.752 119.699 520.231 112.302C515.709 104.904 509.131 101.206 500.499 101.206C489.605 101.206 480.356 107.576 472.751 120.315V188.43C475.834 193.361 479.534 197.265 483.85 200.142C488.372 202.813 493.202 204.148 498.341 204.148Z" fill="url(#paint1_linear_262_4)"/>
<path d="M293.327 175.219C273.802 175.359 258.743 167.761 248.15 152.426C237.559 137.296 232.165 115.965 231.968 88.4322C231.848 71.5838 234.412 56.5655 239.662 43.3773C244.706 30.1905 252.135 19.8635 261.947 12.3961C271.554 4.93013 283.038 1.14939 296.398 1.05386C305.235 0.990667 313.367 2.78184 320.793 6.42737C328.013 10.0744 334.216 15.167 339.401 21.7052L341.755 5.96926L384.917 5.66063L386.553 234.347L337.879 239.935L337.258 153.022C332.373 159.837 326.143 165.224 318.566 169.183C310.784 173.142 302.371 175.155 293.327 175.219ZM310.833 36.3958C291.718 36.5324 282.284 53.7574 282.529 88.0706C282.669 107.59 285.026 121.032 289.601 128.397C294.175 135.761 300.779 139.413 309.411 139.351C320.305 139.273 329.508 132.837 337.022 120.044L336.534 51.9311C333.416 47.0219 329.688 43.1445 325.352 40.2988C320.811 37.66 315.971 36.359 310.833 36.3958Z" fill="url(#paint2_linear_262_4)"/>
<path d="M267.314 65.9725C286.84 66.0819 301.801 73.8711 312.197 89.3401C322.594 104.604 327.715 126.002 327.561 153.535C327.466 170.384 324.71 185.368 319.292 198.488C314.08 211.609 306.521 221.841 296.614 229.183C286.912 236.525 275.381 240.159 262.021 240.085C253.183 240.035 245.075 238.14 237.697 234.4C230.524 230.662 224.386 225.49 219.285 218.886L216.73 234.591L173.568 234.349L174.85 5.66056L223.591 0.694021L223.104 87.6081C228.075 80.8552 234.374 75.5481 242 71.6868C249.833 67.8266 258.27 65.9218 267.314 65.9725ZM248.038 204.561C267.153 204.669 276.807 187.565 276.999 153.252C277.108 133.732 274.923 120.261 270.443 112.839C265.962 105.416 259.406 101.681 250.773 101.633C239.88 101.572 230.595 107.89 222.919 120.586L222.537 188.7C225.593 193.648 229.27 197.573 233.57 200.474C238.077 203.17 242.9 204.533 248.038 204.561Z" fill="url(#paint3_linear_262_4)"/>
<defs>
<linearGradient id="paint0_linear_262_4" x1="76.8837" y1="0.421082" x2="76.8837" y2="239.592" gradientUnits="userSpaceOnUse">
<stop stop-color="#392759"/>
<stop offset="1" stop-color="#6874E8"/>
</linearGradient>
<linearGradient id="paint1_linear_262_4" x1="500.807" y1="0.421082" x2="500.807" y2="239.592" gradientUnits="userSpaceOnUse">
<stop stop-color="#392759"/>
<stop offset="1" stop-color="#6874E8"/>
</linearGradient>
<linearGradient id="paint2_linear_262_4" x1="309.824" y1="240.135" x2="308.114" y2="0.970083" gradientUnits="userSpaceOnUse">
<stop stop-color="#392759"/>
<stop offset="1" stop-color="#6874E8"/>
</linearGradient>
<linearGradient id="paint3_linear_262_4" x1="251.647" y1="0.85122" x2="250.307" y2="240.019" gradientUnits="userSpaceOnUse">
<stop stop-color="#392759"/>
<stop offset="1" stop-color="#6874E8"/>
</linearGradient>
</defs>
</svg>